PathFileType	4	(X/Y/Z)																																																																																																																																																																																															
DataRate	CameraRate	NumFrames	NumMarkers	Units	OrigDataRate	OrigDataStartFrame	OrigNumFrames																																																																																																																																																																																										
100	100	4	64	     mm	100	249	397																																																																																																																																																																																										
Frame#	Time	LASI			RASI			LPSI			RPSI			RTH2			RTH3			RLFC			RMFC			LTH1			LTH2			LTH3			LLFC			LMFC			RTB1			RTB2			RTB3			RLMAL			RMMAL			LTB1			LTB2			LTB3			LLMAL			LMMAL			RCAL			RTOE			RMT5			LCAL			LTOE			LMT5			LACR			RACR			CLAV			C7			LASH			LPSH			RASH			RPSH			RUA1			RUA2			RUA3			RLEL			RMEL			LUA1			LUA2			LUA3			LLEL			LMEL			RFAsuperior			RFAradius			RFAulna			LFAsuperior			LFAradius			LFAulna			RTH1			RHJC			LHJC			RKJC			LKJC			RAJC			LAJC			RSJC			LSJC			REJC			LEJC		
		X1	Y1	Z1	X2	Y2	Z2	X3	Y3	Z3	X4	Y4	Z4	X5	Y5	Z5	X6	Y6	Z6	X7	Y7	Z7	X8	Y8	Z8	X9	Y9	Z9	X10	Y10	Z10	X11	Y11	Z11	X12	Y12	Z12	X13	Y13	Z13	X14	Y14	Z14	X15	Y15	Z15	X16	Y16	Z16	X17	Y17	Z17	X18	Y18	Z18	X19	Y19	Z19	X20	Y20	Z20	X21	Y21	Z21	X22	Y22	Z22	X23	Y23	Z23	X24	Y24	Z24	X25	Y25	Z25	X26	Y26	Z26	X27	Y27	Z27	X28	Y28	Z28	X29	Y29	Z29	X30	Y30	Z30	X31	Y31	Z31	X32	Y32	Z32	X33	Y33	Z33	X34	Y34	Z34	X35	Y35	Z35	X36	Y36	Z36	X37	Y37	Z37	X38	Y38	Z38	X39	Y39	Z39	X40	Y40	Z40	X41	Y41	Z41	X42	Y42	Z42	X43	Y43	Z43	X44	Y44	Z44	X45	Y45	Z45	X46	Y46	Z46	X47	Y47	Z47	X48	Y48	Z48	X49	Y49	Z49	X50	Y50	Z50	X51	Y51	Z51	X52	Y52	Z52	X53	Y53	Z53	X54	Y54	Z54	X55	Y55	Z55	X56	Y56	Z56	X57	Y57	Z57	X58	Y58	Z58	X59	Y59	Z59	X60	Y60	Z60	X61	Y61	Z61	X62	Y62	Z62	X63	Y63	Z63	X64	Y64	Z64
																																																																																																																																																																																																	
249	2.48	628.74969	1082.79334	-362.74835	374.38675	1075.32275	-362.59314	559.5332	1126.3728	-525.3266	446.14063	1119.30823	-526.38086	341.48074	820.20496	-505.30041	333.34381	666.26935	-477.54004	335.16171	561.68591	-473.07581	450.26858	536.81207	-459.80243	690.18945	955.99017	-422.30536	658.38818	805.97766	-507.04016	674.62927	670.25781	-468.19171	671.68811	551.51367	-456.56604	561.9361	520.31665	-472.90073	374.17441	406.34775	-437.50714	318.51807	370.06232	-526.97162	379.31747	220.48592	-471.8046	331.86334	119.34936	-529.0484	421.22089	130.08649	-504.52856	640.17651	440.88391	-425.6236	689.62665	342.00095	-516.3197	648.37097	227.94405	-455.69797	680.32751	124.6512	-507.86285	593.39032	130.88527	-490.92203	389.01343	97.24713	-596.90533	373.71738	76.07755	-352.34049	287.58911	52.66309	-412.91367	618.92035	97.58356	-579.87305	645.4043	79.14135	-343.61804	735.25946	43.6795	-403.85095	632.4148	1576.82312	-495.80545	339.9859	1564.37378	-473.00699	458.06043	1528.72644	-411.8963	495.08307	1580.02747	-535.87762	645.34302	1544.18958	-432.82471	660.46375	1513.23694	-552.50531	328.77484	1526.46692	-419.2236	320.77411	1495.18176	-555.14893	243.80756	1466.39661	-533.49463	183.96121	1474.74365	-481.069	100.33109	1417.12927	-505.88422	41.06665	1378.56616	-514.54602	79.91718	1319.57556	-466.1463	731.56219	1488.68481	-538.60687	807.82074	1495.86157	-492.57803	885.17291	1450.53626	-518.78296	956.23889	1431.45166	-508.73148	921.85474	1350.44727	-487.772	-26.88409	1388.35376	-428.83197	-56.85248	1362.09436	-252.42252	-115.93061	1357.02075	-289.76572	1012.08484	1416.71655	-440.93024	1018.36139	1365.67004	-255.89032	1087.06897	1377.90112	-273.29715	305.88308	957.05971	-416.25682	411.80966	977.15549	-438.15866	587.00097	1001.02841	-446.19728	392.71515	549.24899	-466.43912	616.8121	535.91516	-464.73338	376.54211	124.71792	-516.78848	636.85892	127.76823	-499.39244	324.77448	1510.82434	-487.18626	652.90338	1528.71326	-492.66501	60.49192	1349.07086	-490.34616	939.04681	1390.94946	-498.25174
250	2.49	628.70856	1082.84253	-362.82315	374.37775	1075.36035	-362.62503	559.5155	1126.36194	-525.36517	446.12891	1119.31055	-526.40533	341.45743	820.20551	-505.30582	333.33963	666.25153	-477.56274	335.19492	561.66809	-473.12192	450.27197	536.80365	-459.83127	690.16388	955.98315	-422.33853	658.42822	805.97681	-507.08853	674.64545	670.2544	-468.21075	671.6994	551.50909	-456.57654	562.8689	520.07782	-472.19348	374.14969	406.35733	-437.50815	318.12875	369.59784	-527.11505	379.33209	220.46486	-471.86685	331.88232	119.34003	-529.05463	421.22498	130.07843	-504.51611	640.18426	440.90991	-425.62418	689.61945	342.00235	-516.28876	648.35773	227.93793	-455.65689	680.28394	124.64265	-507.8165	593.39777	130.88011	-490.93768	389.20572	97.27707	-597.06628	373.71942	76.07355	-352.36298	287.60348	52.67947	-412.86917	618.93243	97.58585	-579.92188	645.40308	79.13238	-343.6181	735.25781	43.65325	-403.81213	632.46228	1576.78955	-495.93707	339.98752	1564.3728	-473.03604	458.10501	1528.7063	-411.92853	495.07565	1579.90491	-536.13208	645.32123	1544.22327	-432.97226	660.43823	1513.2218	-552.57489	328.80627	1526.453	-419.29178	320.80893	1495.14661	-555.25055	243.84653	1466.3833	-533.56464	183.90475	1474.86755	-481.00082	100.36139	1417.16516	-505.98767	41.06354	1378.55432	-514.60761	79.9547	1319.56677	-466.17145	731.56103	1488.69019	-538.69147	807.81201	1495.8346	-492.68189	885.17908	1450.50452	-518.86285	956.25549	1431.40125	-508.79584	921.82733	1350.43884	-487.77362	-26.88918	1388.349	-428.87293	-56.81171	1362.10632	-252.56729	-115.89439	1357.06067	-289.85452	1012.09381	1416.69592	-441.02737	1018.35333	1365.66687	-255.90413	1087.07886	1377.89966	-273.3653	305.86069	957.08995	-416.2823	411.78846	977.17932	-438.18236	586.97988	1001.0484	-446.21583	392.73344	549.23587	-466.47659	617.28415	535.79346	-464.38501	376.55365	124.70923	-516.78537	636.84085	127.76138	-499.37709	324.8076	1510.7998	-487.27116	652.87973	1528.72253	-492.77357	60.50912	1349.06055	-490.38953	939.04141	1390.92004	-498.28473
251	2.5	628.71234	1082.79993	-362.87494	374.34561	1075.33606	-362.69333	559.49982	1126.36414	-525.38025	446.15964	1119.29187	-526.50061	341.47253	820.19031	-505.30542	333.3316	666.25751	-477.60208	335.21509	561.66498	-473.15701	450.25821	536.8078	-459.82553	690.16492	955.99518	-422.34305	658.42908	805.97711	-507.09006	674.6355	670.26282	-468.20148	671.68976	551.51892	-456.54721	562.84033	520.12744	-472.32574	374.12207	406.33566	-437.51559	318.11224	369.59851	-527.15619	379.2962	220.44806	-471.85419	331.85434	119.34314	-529.05279	421.21439	130.0869	-504.49765	640.15814	440.88965	-425.61993	689.64105	341.98288	-516.29443	648.35156	227.94046	-455.62888	680.29523	124.64656	-507.79688	593.42676	130.87907	-490.93646	388.99844	97.24987	-596.88501	373.702	76.06313	-352.33548	287.61685	52.68236	-412.89355	618.94165	97.56034	-579.89526	645.43237	79.14183	-343.63696	735.28143	43.66187	-403.80664	632.45264	1576.78333	-495.98138	340.00626	1564.38294	-473.08725	458.07929	1528.71191	-411.97897	495.04266	1579.89514	-536.20465	645.30481	1544.229	-432.94898	660.45587	1513.21118	-552.62152	328.77548	1526.47571	-419.41138	320.79575	1495.13525	-555.29181	243.85553	1466.39148	-533.65698	183.89694	1474.87793	-481.02054	100.33713	1417.11939	-506.05563	41.09725	1378.51819	-514.70416	79.94562	1319.59741	-466.24976	731.5213	1488.6543	-538.7273	807.81696	1495.81262	-492.77347	885.16748	1450.46204	-518.95209	956.24139	1431.36121	-508.87588	921.82391	1350.41565	-487.80386	-26.89604	1388.34741	-428.8898	-56.88908	1362.13757	-252.51376	-115.52586	1356.95789	-290.33524	1012.09271	1416.66943	-441.07831	1018.32703	1365.67737	-255.94249	1087.07764	1377.87903	-273.401	305.84164	957.08236	-416.38283	411.7735	977.16562	-438.2683	586.96778	1001.02028	-446.27905	392.73665	549.23639	-466.49127	617.26504	535.82318	-464.43648	376.53436	124.71502	-516.77522	636.86099	127.76282	-499.36667	324.78561	1510.80548	-487.35159	652.88034	1528.72009	-492.78525	60.52143	1349.0578	-490.47696	939.03265	1390.88843	-498.33987
252	2.51	628.7096	1082.81299	-362.92065	374.33298	1075.32959	-362.73563	559.48193	1126.35315	-525.41827	446.15167	1119.28076	-526.56024	341.44702	820.16803	-505.33115	333.33166	666.25769	-477.60242	335.19388	561.66711	-473.15988	450.24713	536.79596	-459.87015	690.13055	955.99225	-422.37286	658.42865	805.97693	-507.08926	674.651	670.25409	-468.25659	671.67767	551.50983	-456.59064	562.84869	520.1167	-472.28842	374.10263	406.34085	-437.53287	318.51605	370.02799	-527.04468	379.34524	220.47897	-471.81921	331.86365	119.3438	-529.04749	421.23593	130.07445	-504.52258	640.15808	440.88953	-425.61993	689.61951	342.00229	-516.28864	648.35394	227.99301	-455.61563	680.32068	124.65727	-507.83695	593.39807	130.88054	-490.94028	388.99619	97.2487	-596.85175	373.71924	76.07352	-352.36279	287.6123	52.67054	-412.89157	618.9519	97.58173	-579.87341	645.42719	79.1339	-343.65781	735.28149	43.66196	-403.80682	632.46118	1576.79504	-496.06091	340.03424	1564.36438	-473.19742	458.10385	1528.7052	-412.01596	495.05737	1579.88257	-536.2771	645.33276	1544.24146	-432.94449	660.44318	1513.19507	-552.67157	328.74991	1526.47803	-419.45566	320.82672	1495.12305	-555.30896	243.8858	1466.34522	-533.7215	183.91023	1474.90979	-481.13727	100.34325	1417.1095	-506.11047	41.09476	1378.51636	-514.81726	79.92992	1319.56921	-466.30102	731.53851	1488.62683	-538.80573	807.81397	1495.78613	-492.84418	885.15381	1450.45923	-518.91528	956.23517	1431.32556	-508.98257	921.823	1350.396	-487.87354	-26.87345	1388.36255	-428.96329	-56.67095	1362.14478	-252.731	-115.85346	1357.12341	-289.97995	1012.07764	1416.61731	-441.15094	1018.33673	1365.68616	-256.04977	1087.07959	1377.86719	-273.47043	305.84258	957.06606	-416.41386	411.77266	977.15539	-438.30238	586.96504	1001.02263	-446.31733	392.7205	549.23154	-466.51501	617.26318	535.81326	-464.43953	376.54979	124.70912	-516.78503	636.85938	127.7689	-499.38861	324.78831	1510.80054	-487.38231	652.88797	1528.71826	-492.80803	60.51234	1349.04279	-490.55914	939.02908	1390.86078	-498.42805
